<mxfile host="Electron" modified="2025-01-06T11:17:54.692Z" agent="Mozilla/5.0 (Macintosh; Intel Mac OS X 10_15_7) AppleWebKit/537.36 (KHTML, like Gecko) draw.io/24.4.8 Chrome/124.0.6367.207 Electron/30.0.6 Safari/537.36" etag="h4gFWQVpXn_GfyIPavl7" version="24.4.8" type="device">
  <diagram name="Страница — 1" id="M_9aOFABiwCSObLS5C-2">
    <mxGraphModel dx="1242" dy="907" grid="1" gridSize="10" guides="1" tooltips="1" connect="1" arrows="1" fold="1" page="1" pageScale="1" pageWidth="827" pageHeight="1169" math="0" shadow="0">
      <root>
        <mxCell id="0" />
        <mxCell id="1" parent="0" />
        <mxCell id="bYTFRtONIOl5rvXJ5vdI-5" style="edgeStyle=orthogonalEdgeStyle;rounded=0;orthogonalLoop=1;jettySize=auto;html=1;exitX=1;exitY=0.5;exitDx=0;exitDy=0;endArrow=none;endFill=0;" edge="1" parent="1" source="bYTFRtONIOl5rvXJ5vdI-1">
          <mxGeometry relative="1" as="geometry">
            <mxPoint x="230" y="260" as="targetPoint" />
          </mxGeometry>
        </mxCell>
        <mxCell id="bYTFRtONIOl5rvXJ5vdI-1" value="G" style="ellipse;whiteSpace=wrap;html=1;aspect=fixed;" vertex="1" parent="1">
          <mxGeometry x="160" y="240" width="40" height="40" as="geometry" />
        </mxCell>
        <mxCell id="bYTFRtONIOl5rvXJ5vdI-2" value="P" style="whiteSpace=wrap;html=1;aspect=fixed;" vertex="1" parent="1">
          <mxGeometry x="210" y="290" width="40" height="40" as="geometry" />
        </mxCell>
        <mxCell id="bYTFRtONIOl5rvXJ5vdI-6" style="edgeStyle=orthogonalEdgeStyle;rounded=0;orthogonalLoop=1;jettySize=auto;html=1;exitX=0.5;exitY=1;exitDx=0;exitDy=0;exitPerimeter=0;entryX=0.5;entryY=0;entryDx=0;entryDy=0;endArrow=none;endFill=0;" edge="1" parent="1" source="bYTFRtONIOl5rvXJ5vdI-4" target="bYTFRtONIOl5rvXJ5vdI-2">
          <mxGeometry relative="1" as="geometry" />
        </mxCell>
        <mxCell id="bYTFRtONIOl5rvXJ5vdI-8" value="" style="group" vertex="1" connectable="0" parent="1">
          <mxGeometry x="205" y="180" width="50" height="50" as="geometry" />
        </mxCell>
        <mxCell id="bYTFRtONIOl5rvXJ5vdI-4" value="" style="verticalLabelPosition=bottom;verticalAlign=top;html=1;shape=mxgraph.basic.acute_triangle;dx=0.5;" vertex="1" parent="bYTFRtONIOl5rvXJ5vdI-8">
          <mxGeometry width="50" height="50" as="geometry" />
        </mxCell>
        <mxCell id="bYTFRtONIOl5rvXJ5vdI-7" value="M" style="text;html=1;align=center;verticalAlign=middle;whiteSpace=wrap;rounded=0;" vertex="1" parent="bYTFRtONIOl5rvXJ5vdI-8">
          <mxGeometry x="5" y="20" width="40" height="30" as="geometry" />
        </mxCell>
      </root>
    </mxGraphModel>
  </diagram>
</mxfile>
